# xmcd
#
# Track frame offsets: 
#        150
#        19856
#        40652
#        59137
#        82082
#        98064
#        114987
#        136159
#        152599
#        171841
#        190063
#        205458
#        230484
#
# Disc length: 3339 seconds
#
# Revision: 0
# Processed by: cddbd v1.5.2PL0 Copyright (c) Steve Scherf et al.
# Submitted via: ExactAudioCopy v0.99pb4
#
DISCID=ab0d090d
DTITLE=Emmylou Harris - All I Intended To Be
DYEAR=2008
DGENRE=Country
TTITLE0=Shores of White Sand
TTITLE1=Hold On
TTITLE2=Moon Song
TTITLE3=Broken Mans Lament
TTITLE4=Gold
TTITLE5=How She Could Sing the Wildwood Flower
TTITLE6=All That You Have is Your Soul
TTITLE7=Take That Ride
TTITLE8=Old Five and Dimers Like Me
TTITLE9=Kern River
TTITLE10=Not Enough
TTITLE11=Sailing Round the Room
TTITLE12=Beyond the Great Divide
EXTD=
EXTT0=
EXTT1=
EXTT2=
EXTT3=
EXTT4=
EXTT5=
EXTT6=
EXTT7=
EXTT8=
EXTT9=
EXTT10=
EXTT11=
EXTT12=
PLAYORDER=
